<svg width="19" height="20" viewBox="0 0 19 20" fill="none" xmlns="http://www.w3.org/2000/svg">
<path fill-rule="evenodd" clip-rule="evenodd" d="M5.66709 0.75113C6.66237 0.704962 6.9797 0.694702 9.51497 0.694702C12.0502 0.694702 12.3676 0.705817 13.362 0.75113C14.3564 0.796443 15.0352 0.95632 15.6292 1.18802C16.2511 1.42484 16.8153 1.79504 17.282 2.27382C17.7572 2.74319 18.1237 3.31089 18.3579 3.93843C18.5887 4.5369 18.7465 5.22087 18.7923 6.22118C18.8381 7.22576 18.8483 7.54551 18.8483 10.0993C18.8483 12.6539 18.8373 12.9737 18.7923 13.9765C18.7473 14.9768 18.5887 15.6608 18.3579 16.2593C18.1237 16.8869 17.7565 17.4555 17.282 17.9256C16.8153 18.4044 16.2511 18.7737 15.6292 19.0097C15.0352 19.2422 14.3564 19.4013 13.3637 19.4474C12.3676 19.4936 12.0502 19.5039 9.51497 19.5039C6.9797 19.5039 6.66237 19.4927 5.66709 19.4474C4.67437 19.4021 3.99558 19.2422 3.40164 19.0097C2.77879 18.7737 2.21446 18.4037 1.74794 17.9256C1.27311 17.4559 0.905665 16.8876 0.671216 16.2601C0.441277 15.6617 0.283459 14.9777 0.237641 13.9774C0.191822 12.9728 0.181641 12.6531 0.181641 10.0993C0.181641 7.54466 0.192671 7.2249 0.237641 6.22289C0.28261 5.22087 0.441277 4.5369 0.671216 3.93843C0.906011 3.31096 1.27374 2.7426 1.74879 2.27296C2.21464 1.79461 2.7784 1.42436 3.40079 1.18802C3.99473 0.95632 4.67352 0.797298 5.66625 0.75113H5.66709ZM13.2865 2.44395C12.3022 2.39864 12.007 2.38924 9.51497 2.38924C7.02297 2.38924 6.7277 2.39864 5.74346 2.44395C4.83303 2.48585 4.33922 2.63889 4.01 2.76798C3.57473 2.93898 3.26334 3.1416 2.93667 3.47076C2.62701 3.77432 2.3887 4.14386 2.23922 4.55229C2.11109 4.88402 1.95922 5.3816 1.91764 6.29898C1.87267 7.29073 1.86334 7.58826 1.86334 10.0993C1.86334 12.6103 1.87267 12.9078 1.91764 13.8996C1.95922 14.817 2.11109 15.3145 2.23922 15.6463C2.38855 16.0541 2.62697 16.4243 2.93667 16.7278C3.23788 17.0399 3.60528 17.2801 4.01 17.4306C4.33922 17.5597 4.83303 17.7127 5.74346 17.7546C6.7277 17.7999 7.02212 17.8093 9.51497 17.8093C12.0078 17.8093 12.3022 17.7999 13.2865 17.7546C14.1969 17.7127 14.6907 17.5597 15.0199 17.4306C15.4552 17.2596 15.7666 17.057 16.0933 16.7278C16.403 16.4243 16.6414 16.0541 16.7907 15.6463C16.9189 15.3145 17.0707 14.817 17.1123 13.8996C17.1573 12.9078 17.1666 12.6103 17.1666 10.0993C17.1666 7.58826 17.1573 7.29073 17.1123 6.29898C17.0707 5.3816 16.9189 4.88402 16.7907 4.55229C16.621 4.11369 16.4199 3.79992 16.0933 3.47076C15.792 3.15876 15.4253 2.91864 15.0199 2.76798C14.6907 2.63889 14.1969 2.48585 13.2865 2.44395V2.44395ZM8.32285 12.9985C8.98862 13.2777 9.72996 13.3154 10.4202 13.1051C11.1105 12.8948 11.7069 12.4495 12.1076 11.8453C12.5083 11.2411 12.6884 10.5155 12.6171 9.79244C12.5458 9.06934 12.2276 8.39361 11.7168 7.88066C11.3912 7.55276 10.9975 7.30169 10.564 7.14551C10.1305 6.98934 9.66806 6.93196 9.20994 6.97749C8.75181 7.02302 8.30941 7.17033 7.91456 7.40883C7.51972 7.64732 7.18227 7.97106 6.9265 8.35674C6.67073 8.74242 6.50301 9.18045 6.43541 9.63928C6.36781 10.0981 6.40201 10.5663 6.53555 11.0103C6.66909 11.4542 6.89865 11.8627 7.20771 12.2065C7.51676 12.5503 7.89761 12.8208 8.32285 12.9985ZM6.12273 6.68114C6.56821 6.23227 7.09706 5.8762 7.6791 5.63327C8.26115 5.39034 8.88498 5.26531 9.51497 5.26531C10.145 5.26531 10.7688 5.39034 11.3508 5.63327C11.9329 5.8762 12.4617 6.23227 12.9072 6.68114C13.3527 7.13002 13.7061 7.66291 13.9472 8.2494C14.1882 8.83588 14.3123 9.46448 14.3123 10.0993C14.3123 10.7341 14.1882 11.3627 13.9472 11.9492C13.7061 12.5356 13.3527 13.0685 12.9072 13.5174C12.0075 14.424 10.7873 14.9333 9.51497 14.9333C8.24264 14.9333 7.02241 14.424 6.12273 13.5174C5.22305 12.6109 4.71762 11.3813 4.71762 10.0993C4.71762 8.81723 5.22305 7.58769 6.12273 6.68114V6.68114ZM15.3763 5.98521C15.4867 5.88028 15.5751 5.75409 15.6362 5.61413C15.6973 5.47417 15.73 5.32327 15.7322 5.17037C15.7344 5.01747 15.7061 4.86567 15.6491 4.72397C15.592 4.58228 15.5073 4.45355 15.4 4.34542C15.2927 4.23729 15.165 4.15196 15.0243 4.09447C14.8837 4.03699 14.7331 4.00851 14.5813 4.01074C14.4296 4.01297 14.2798 4.04586 14.1409 4.10745C14.002 4.16904 13.8768 4.25809 13.7727 4.36933C13.5701 4.58566 13.4593 4.873 13.4636 5.17037C13.4679 5.46773 13.587 5.7517 13.7957 5.96199C14.0044 6.17228 14.2862 6.29233 14.5813 6.29667C14.8764 6.301 15.1616 6.18928 15.3763 5.98521V5.98521Z" fill="#090A13"/>
</svg>
