<svg width="19" height="20" viewBox="0 0 19 20" fill="none" xmlns="http://www.w3.org/2000/svg">
<path fill-rule="evenodd" clip-rule="evenodd" d="M0.151367 2.26612C0.151367 1.84936 0.315673 1.44966 0.608139 1.15496C0.900605 0.860264 1.29727 0.694704 1.71088 0.694704H17.2568C17.4618 0.694367 17.6648 0.73477 17.8543 0.813601C18.0437 0.892432 18.2159 1.00814 18.3609 1.15411C18.5059 1.30007 18.6209 1.47342 18.6994 1.66424C18.7778 1.85506 18.8181 2.05959 18.818 2.26612V17.9307C18.8183 18.1373 18.7781 18.3419 18.6997 18.5328C18.6214 18.7237 18.5065 18.8972 18.3616 19.0433C18.2166 19.1894 18.0445 19.3053 17.8551 19.3843C17.6657 19.4634 17.4627 19.504 17.2577 19.5039H1.71088C1.50601 19.5039 1.30315 19.4632 1.11389 19.3842C0.924621 19.3051 0.752664 19.1893 0.607839 19.0433C0.463013 18.8973 0.348158 18.724 0.269835 18.5332C0.191512 18.3425 0.151256 18.138 0.151367 17.9316V2.26612ZM7.53997 7.86612H10.0676V9.14515C10.4325 8.40988 11.3658 7.74814 12.7683 7.74814C15.4572 7.74814 16.0944 9.21269 16.0944 11.8998V16.8774H13.3733V12.512C13.3733 10.9816 13.0085 10.1181 12.0819 10.1181C10.7965 10.1181 10.2619 11.0491 10.2619 12.512V16.8774H7.53997V7.86612ZM2.87331 16.7603H5.59525V7.74814H2.87331V16.7594V16.7603ZM5.9847 4.80878C5.98983 5.04361 5.94836 5.27712 5.86272 5.49558C5.77708 5.71405 5.649 5.91308 5.48599 6.08099C5.32298 6.2489 5.12832 6.38231 4.91345 6.4734C4.69858 6.56448 4.46781 6.6114 4.2347 6.6114C4.00159 6.6114 3.77082 6.56448 3.55595 6.4734C3.34108 6.38231 3.14642 6.2489 2.98341 6.08099C2.8204 5.91308 2.69232 5.71405 2.60668 5.49558C2.52104 5.27712 2.47957 5.04361 2.4847 4.80878C2.49477 4.34783 2.68357 3.90918 3.01066 3.58677C3.33776 3.26436 3.77713 3.08382 4.2347 3.08382C4.69227 3.08382 5.13165 3.26436 5.45874 3.58677C5.78583 3.90918 5.97463 4.34783 5.9847 4.80878Z" fill="#090A13"/>
</svg>
