<svg width="12" height="16" viewBox="0 0 12 16" fill="none" xmlns="http://www.w3.org/2000/svg">
<path d="M5.9833 15.5C4.93249 14.6022 3.95849 13.618 3.07148 12.5575C1.74037 10.965 0.159669 8.59338 0.159669 6.33338C0.158489 3.973 1.57751 1.84453 3.75457 0.941206C5.93162 0.0378789 8.43759 0.537742 10.1031 2.20754C11.1983 3.29972 11.8118 4.78537 11.807 6.33338C11.807 8.59338 10.2262 10.965 8.89511 12.5575C8.0081 13.618 7.0341 14.6022 5.9833 15.5ZM5.9833 2.16671C3.68708 2.16946 1.82631 4.03333 1.82356 6.33338C1.82356 7.30504 2.262 8.98754 4.34852 11.4884C4.86278 12.1034 5.40843 12.6914 5.9833 13.25C6.55821 12.6921 7.10413 12.1049 7.6189 11.4909C9.70459 8.98671 10.143 7.30421 10.143 6.33338C10.1403 4.03333 8.27951 2.16946 5.9833 2.16671ZM5.9833 8.83338C4.60488 8.83338 3.48746 7.71409 3.48746 6.33338C3.48746 4.95266 4.60488 3.83338 5.9833 3.83338C7.36171 3.83338 8.47914 4.95266 8.47914 6.33338C8.47914 6.99642 8.21618 7.6323 7.74812 8.10114C7.28006 8.56998 6.64523 8.83338 5.9833 8.83338Z" fill="white"/>
</svg>
