<svg width="100" height="100" viewBox="0 0 100 100" fill="none" xmlns="http://www.w3.org/2000/svg">
<circle cx="50" cy="50" r="50" fill="white"/>
<path d="M70.9517 34.0446L61.065 42.1836L29.9819 67.5004C27.4009 69.6025 23.5885 67.4078 24.1102 64.1203C24.2767 63.0705 24.8955 62.1466 25.8029 61.593L70.9517 34.0446Z" fill="#266FFF"/>
<path d="M72.1607 70.5763C72.9435 70.7335 72.8289 71.8859 72.0305 71.8859L27.5292 69.3375C25.2318 69.2059 23.576 67.0811 24.0098 64.8212C24.4084 62.7448 26.4231 61.3915 28.496 61.8078L72.1607 70.5763Z" fill="#266FFF"/>
<path d="M59.8701 31.6614C58.5639 31.494 57.619 30.2869 58.0336 29.037C58.5471 27.4886 59.3645 26.0495 60.4462 24.8075C62.0528 22.9628 64.1703 21.636 66.5311 20.9947C68.8918 20.3535 71.3896 20.4267 73.7087 21.2051C76.0278 21.9835 78.064 23.4321 79.5598 25.3677C81.0556 27.3033 81.9439 29.639 82.1122 32.0795C82.2806 34.5199 81.7215 36.9555 80.5056 39.0782C79.2898 41.2008 77.4718 42.9153 75.2815 44.0048C73.8069 44.7383 72.2081 45.1663 70.5803 45.2727C69.2663 45.3587 68.3365 44.1399 68.5039 42.8337C68.6713 41.5276 69.8865 40.6428 71.1806 40.399C71.8634 40.2703 72.5289 40.0479 73.1578 39.7351C74.5035 39.0657 75.6206 38.0123 76.3677 36.708C77.1148 35.4037 77.4583 33.9072 77.3549 32.4076C77.2514 30.9081 76.7056 29.473 75.7865 28.2836C74.8674 27.0943 73.6163 26.2042 72.1913 25.7259C70.7664 25.2476 69.2316 25.2027 67.7811 25.5967C66.3305 25.9907 65.0294 26.8059 64.0422 27.9394C63.581 28.469 63.1979 29.057 62.9012 29.6853C62.3389 30.876 61.1762 31.8288 59.8701 31.6614Z" fill="#266FFF"/>
<path d="M22.2537 38.1592C20.9554 38.0769 20.9189 36.1794 22.2132 36.0472L66.1867 31.7882C69.0059 31.5151 71.3996 33.8307 71.2202 36.6574C71.0594 39.1924 68.8739 41.1171 66.3389 40.9563L22.2537 38.1592Z" fill="#F6A01F"/>
</svg>
