<svg width="20" height="16" viewBox="0 0 20 16" fill="none" xmlns="http://www.w3.org/2000/svg">
<path d="M19.909 2.06068C19.2005 2.37701 18.4394 2.59075 17.6393 2.68736C18.4649 2.1896 19.0825 1.40617 19.377 0.483271C18.6014 0.947506 17.7525 1.27428 16.8672 1.44938C16.2719 0.808896 15.4834 0.384374 14.6241 0.241722C13.7648 0.0990696 12.8828 0.246268 12.115 0.660464C11.3473 1.07466 10.7367 1.73268 10.3781 2.53236C10.0195 3.33204 9.93298 4.22864 10.1319 5.08297C8.56026 5.00345 7.02275 4.59183 5.61919 3.87482C4.21562 3.15781 2.97736 2.15144 1.98476 0.921011C1.64537 1.51093 1.45022 2.1949 1.45022 2.92333C1.44984 3.57908 1.6101 4.22479 1.91678 4.80316C2.22346 5.38154 2.66708 5.87469 3.20828 6.23887C2.58064 6.21875 1.96684 6.04786 1.41798 5.74043V5.79173C1.41791 6.71145 1.73364 7.60286 2.31159 8.31472C2.88953 9.02657 3.6941 9.51503 4.58876 9.6972C4.00652 9.85597 3.39608 9.87936 2.80355 9.76559C3.05597 10.557 3.54767 11.249 4.2098 11.7448C4.87194 12.2406 5.67136 12.5153 6.49616 12.5305C5.09602 13.6381 3.36685 14.2388 1.58683 14.2362C1.27151 14.2363 0.956466 14.2177 0.643311 14.1806C2.45014 15.3512 4.55342 15.9725 6.70149 15.97C13.973 15.97 17.9482 9.90153 17.9482 4.63839C17.9482 4.46739 17.9439 4.29469 17.9363 4.1237C18.7095 3.56026 19.3769 2.86254 19.9073 2.06324L19.909 2.06068Z" fill="#090A13"/>
</svg>
